# xmcd
#
# Track frame offsets: 
#        150
#        16155
#        30512
#        45361
#        60335
#        79254
#        94290
#        113286
#        127071
#        143442
#        158903
#        175083
#        190910
#        208328
#
# Disc length: 3030 seconds
#
# Revision: 2
# Processed by: cddbd v1.5.2PL0 Copyright (c) Steve Scherf et al.
# Submitted via: ExactAudioCopy v0.99pb5
#
DISCID=ac0bd40e
DTITLE=Rosanna Rocci - Herz über Kopf verliebt
DYEAR=2001
DGENRE=Pop
TTITLE0=Herz über Kopf verliebt
TTITLE1=La Mamma
TTITLE2=Heioheiohei (Kopfüber ins Leben)
TTITLE3=Theresa
TTITLE4=Casanova
TTITLE5=Endlich
TTITLE6=Gefangener des Glücks
TTITLE7=My Family
TTITLE8=Perche No - warum nicht?
TTITLE9=Chaka Chaka
TTITLE10=Vino E Pane
TTITLE11=Mister Mister
TTITLE12=Ohne warum
TTITLE13=Ich hör dein Herz schlagen
EXTD=
EXTT0=
EXTT1=
EXTT2=
EXTT3=
EXTT4=
EXTT5=
EXTT6=
EXTT7=
EXTT8=
EXTT9=
EXTT10=
EXTT11=
EXTT12=
EXTT13=
PLAYORDER=
